Coordinates
version=1
nRows=10
nColumns=34
inDegrees=yes

Units are S.I. units (second, meters, Newtons, ...)
If the header above contains a line with 'inDegrees', this indicates whether rotational values are in degrees (yes) or radians (no).

endheader
time	pelvis_tilt	pelvis_list	pelvis_rotation	pelvis_tx	pelvis_ty	pelvis_tz	hip_flexion_r	hip_adduction_r	hip_rotation_r	knee_angle_r	ankle_angle_r	subtalar_angle_r	mtp_angle_r	hip_flexion_l	hip_adduction_l	hip_rotation_l	knee_angle_l	ankle_angle_l	subtalar_angle_l	mtp_angle_l	lumbar_extension	lumbar_bending	lumbar_rotation	arm_flex_r	arm_add_r	arm_rot_r	elbow_flex_r	pro_sup_r	arm_flex_l	arm_add_l	arm_rot_l	elbow_flex_l	pro_sup_l
      0.00000000	      2.17329501	     -0.46630665	      0.94407738	     -0.93065789	      1.15123382	     -0.08696960	     -6.43604825	     -3.70648059	     -7.54230896	      6.19010592	     -1.59774518	    -20.61950525	      0.00000000	     -7.73137586	     -2.72067921	     -6.64388364	      1.19430347	      5.13112342	    -12.86016754	      0.00000000	     -3.24821608	      5.06145969	      0.26763686	     -2.54007913	     -9.96920718	     22.78039459	     19.58819544	     67.32615994	    -53.42239540	   -141.79405785	   -134.39814612	     59.46551348	     69.86563348
      0.01666670	     -2.01873034	     -0.75155950	     -0.63948404	     -0.92841026	      1.14077341	     -0.08666090	     -1.76218183	     -3.70931679	     -8.73582916	      6.50593681	      0.85193812	    -14.70803334	      0.00000000	     -3.70915152	     -2.71607983	     -9.72631573	      0.00000000	      5.15974382	     -9.55816041	      0.00000000	      1.32553046	      5.13557493	     -2.63197871	     -0.26627842	    -10.93770157	     19.09356841	     21.31643059	     68.46546302	    -43.40240642	   -141.85391472	   -126.56396057	     47.45973512	     70.05831866
      0.03333330	     -3.66612500	     -0.62933958	     -1.58870468	     -0.92790074	      1.13855273	     -0.08533044	      0.17562307	     -3.95812991	     -8.78197327	      6.71809911	      0.75664911	    -15.23717863	      0.00000000	     -1.91079595	     -2.37203671	    -11.98576049	      0.00000000	      6.73448281	     -7.16146627	      0.00000000	      3.44445911	      4.73280629	     -1.43505504	     -0.64593961	    -10.83749687	     12.59305668	     22.10427510	     69.42385514	    -41.15058742	   -143.46857025	   -123.99498816	     45.90085017	     71.16990502
      0.05000000	     -4.67179383	     -0.63830325	     -2.00624688	     -0.92824289	      1.13646552	     -0.08541019	      1.44820148	     -4.04366433	     -9.37522400	      6.75266516	      0.81606142	    -14.94238108	      0.00000000	     -0.85395625	     -2.32117069	    -13.24186228	      0.00000000	      7.03498155	     -6.26954951	      0.00000000	      5.04423179	      4.47220306	      0.04159742	     -2.25030127	    -10.03034833	      5.99734472	     23.37740871	     71.35454070	    -41.55895263	   -146.29614898	   -124.73603023	     43.92233420	     72.63757419
      0.06666670	     -5.16469445	     -0.81342836	     -2.43565951	     -0.92860894	      1.13520008	     -0.08532465	      1.97238724	     -3.82503704	     -9.31511737	      6.60360299	      1.02139736	    -15.04224555	      0.00000000	     -0.38825183	     -2.47941786	    -13.70809351	      0.00000000	      7.28454028	     -6.25092185	      0.00000000	      5.72051754	      4.73513729	     -0.18768969	     -2.19959342	     -9.72148677	      5.71585619	     23.41075377	     71.53839429	    -40.19542043	   -146.83466259	   -125.31740192	     43.63843085	     72.65101839
      0.08333330	     -5.46328421	     -0.80312805	     -2.78135474	     -0.92916121	      1.13446794	     -0.08548047	      2.40321116	     -3.81819656	     -9.21434222	      6.62435266	      1.14927413	    -15.61476949	      0.00000000	     -0.11068846	     -2.42720079	    -14.24740403	      0.00000000	      7.67444320	     -5.75534444	      0.00000000	      6.10175664	      4.93093947	      1.40334197	     -3.79347502	     -8.48726791	     -3.64815234	     24.96287133	     80.01389442	    -40.99541396	   -150.13901027	   -131.85561378	     39.95493390	     73.84941472
      0.10000000	     -5.81740285	     -0.93093427	     -3.12348266	     -0.92961595	      1.13368984	     -0.08541449	      2.84376607	     -3.62916699	     -9.10566683	      6.54726676	      1.32745930	    -15.65419817	      0.00000000	      0.20932332	     -2.57630335	    -14.68786485	      0.00000000	      7.85732840	     -5.64150004	      0.00000000	      6.55548171	      5.36382589	      1.08043690	     -3.73493747	     -8.56295740	     -3.69966709	     24.96209974	     80.29549132	    -39.83602715	   -150.14424851	   -132.37270025	     39.47482234	     73.82805783
      0.11666670	     -5.98851464	     -1.02569323	     -3.34535405	     -0.92864590	      1.13333342	     -0.08593072	      3.04063559	     -3.50127384	     -9.01832999	      6.49189129	      1.58986144	    -15.80240189	      0.00000000	      0.31382298	     -2.67126373	    -15.04699080	      0.00000000	      8.16449788	     -5.41248306	      0.00000000	      7.02367505	      5.84841157	      0.74212982	     -3.84470992	     -8.80884997	     -3.78081746	     25.18226920	     80.73403487	    -39.11515240	   -150.21793937	   -132.95857979	     38.28109590	     73.77515135
      0.13333330	     -5.90017671	     -1.07273109	     -3.48689380	     -0.92585509	      1.13346336	     -0.08722644	      2.93170167	     -3.49600058	     -9.04167236	      6.51184476	      1.57215654	    -15.75328551	      0.00000000	      0.11381796	     -2.68213693	    -15.62035346	      0.00000000	      8.58348484	     -4.59241384	      0.00000000	      7.40185038	      6.01829294	      1.37100647	     -5.11312194	     -9.36314826	     -3.99567182	     26.47348981	     82.57556390	    -38.79219465	   -152.17051733	   -133.97231142	     35.21187868	     73.68017694
      0.15000000	     -5.83639056	     -1.24535264	     -3.58389708	     -0.92271217	      1.13366202	     -0.08864214	      2.64102248	     -3.34806323	     -9.11070719	      6.27627835	      1.65470184	    -15.39031356	      0.00000000	     -0.10736776	     -2.82009249	    -15.61187435	      0.00000000	      8.65764368	     -4.61775388	      0.00000000	      7.55711140	      6.57226740	      2.87310524	     -7.75457638	     -9.57595746	     -7.92302134	     29.74744772	     90.33978146	    -39.29014974	   -154.03199420	   -138.96361006	     34.76299291	     73.47351522
